<?xml version="1.0" encoding="UTF-8"?>
<svg id="_Слой_2" data-name="Слой 2" xmlns="http://www.w3.org/2000/svg" xmlns:xlink="http://www.w3.org/1999/xlink" viewBox="0 0 841 64">
  <defs>
    <style>
      .cls-1 {
        fill: url(#_Лето);
        stroke: #000;
        stroke-miterlimit: 10;
        stroke-width: 6px;
      }

      .cls-2 {
        fill: none;
      }
    </style>
    <radialGradient id="_Лето" data-name="Лето" cx="493.26" cy="32.88" fx="493.26" fy="32.88" r="82.3" gradientTransform="translate(0 -.84) scale(1 1.03)" gradientUnits="userSpaceOnUse">
      <stop offset="0" stop-color="#fff"/>
      <stop offset=".09" stop-color="#ffecd8"/>
      <stop offset=".21" stop-color="#ffd4a7"/>
      <stop offset=".33" stop-color="#ffc07d"/>
      <stop offset=".46" stop-color="#ffb05a"/>
      <stop offset=".59" stop-color="#ffa340"/>
      <stop offset=".72" stop-color="#ff9a2d"/>
      <stop offset=".86" stop-color="#ff9421"/>
      <stop offset="1" stop-color="#ff931e"/>
    </radialGradient>
  </defs>
  <g id="_Слой_1-2" data-name="Слой 1">
    <g>
      <path d="m18.39,49.12L8.05,15.43h-.26c.04.8.1,2.01.19,3.63.09,1.62.17,3.33.25,5.15.08,1.82.12,3.47.12,4.93v19.97H.21V6.18h12.39l10.16,32.84h.18L33.72,6.18h12.39v42.94h-8.49v-20.32c0-1.35.02-2.91.07-4.67.05-1.76.11-3.44.19-5.04.08-1.6.14-2.79.18-3.6h-.26l-11.07,33.63h-8.34Z"/>
      <path d="m69.66,15.61c4.41,0,7.78.96,10.13,2.88,2.35,1.92,3.52,4.84,3.52,8.75v21.88h-6.26l-1.73-4.46h-.23c-.94,1.17-1.9,2.13-2.88,2.88-.98.74-2.11,1.29-3.38,1.64-1.27.35-2.82.53-4.64.53-1.94,0-3.68-.37-5.21-1.12-1.54-.74-2.75-1.88-3.63-3.42-.88-1.54-1.32-3.49-1.32-5.86,0-3.48,1.22-6.05,3.67-7.71,2.45-1.66,6.12-2.57,11.01-2.75l5.7-.18v-1.44c0-1.72-.45-2.99-1.35-3.79-.9-.8-2.15-1.2-3.76-1.2s-3.14.23-4.67.68c-1.53.45-3.05,1.02-4.58,1.7l-2.97-6.05c1.74-.92,3.7-1.64,5.86-2.17,2.16-.53,4.4-.79,6.71-.79Zm4.76,18.3l-3.47.12c-2.9.08-4.91.6-6.04,1.56-1.13.96-1.69,2.22-1.69,3.79,0,1.37.4,2.34,1.2,2.92.8.58,1.85.87,3.14.87,1.92,0,3.54-.57,4.86-1.7,1.32-1.13,1.98-2.75,1.98-4.85v-2.7Z"/>
      <path d="m115.22,16.29v6.73h-13.72v26.11h-8.96V16.29h22.67Z"/>
      <path d="m134.75,15.61c4.41,0,7.78.96,10.13,2.88,2.35,1.92,3.52,4.84,3.52,8.75v21.88h-6.26l-1.73-4.46h-.23c-.94,1.17-1.9,2.13-2.88,2.88-.98.74-2.11,1.29-3.38,1.64-1.27.35-2.82.53-4.64.53-1.94,0-3.68-.37-5.21-1.12-1.54-.74-2.75-1.88-3.63-3.42-.88-1.54-1.32-3.49-1.32-5.86,0-3.48,1.22-6.05,3.67-7.71,2.45-1.66,6.12-2.57,11.01-2.75l5.7-.18v-1.44c0-1.72-.45-2.99-1.35-3.79-.9-.8-2.15-1.2-3.76-1.2s-3.14.23-4.67.68c-1.53.45-3.05,1.02-4.58,1.7l-2.97-6.05c1.74-.92,3.7-1.64,5.86-2.17,2.16-.53,4.4-.79,6.71-.79Zm4.76,18.3l-3.47.12c-2.9.08-4.91.6-6.04,1.56-1.13.96-1.69,2.22-1.69,3.79,0,1.37.4,2.34,1.2,2.92.8.58,1.85.87,3.14.87,1.92,0,3.54-.57,4.86-1.7,1.32-1.13,1.98-2.75,1.98-4.85v-2.7Z"/>
      <path d="m169.58,15.67c2.37,0,4.58.31,6.64.92,2.06.62,3.72,1.57,4.99,2.85,1.27,1.28,1.91,2.93,1.91,4.95s-.6,3.55-1.79,4.71c-1.19,1.17-2.78,2-4.76,2.51v.29c1.39.33,2.65.78,3.77,1.35,1.13.57,2.02,1.35,2.69,2.35.66,1,1,2.31,1,3.94,0,1.82-.58,3.5-1.73,5.04-1.16,1.54-2.92,2.77-5.3,3.71-2.38.94-5.43,1.41-9.15,1.41-1.76,0-3.42-.08-4.98-.23-1.56-.16-2.98-.39-4.27-.69-1.29-.3-2.42-.67-3.38-1.1v-7.4c1.35.63,3.02,1.2,5.01,1.73,1.99.53,4.11.79,6.36.79,1.62,0,3.1-.12,4.42-.35,1.32-.23,2.37-.63,3.14-1.19.77-.56,1.16-1.31,1.16-2.25,0-.88-.34-1.61-1.01-2.19-.68-.58-1.7-1.01-3.08-1.29-1.38-.28-3.13-.43-5.24-.43h-3.47v-6.2h3.29c2.98,0,5.28-.24,6.9-.73,1.62-.49,2.44-1.39,2.44-2.7,0-1.06-.52-1.85-1.56-2.38-1.04-.53-2.75-.79-5.14-.79-1.55,0-3.25.18-5.11.54-1.86.36-3.6.88-5.23,1.54l-2.64-6.26c1.9-.72,3.96-1.32,6.18-1.78,2.22-.46,4.87-.69,7.95-.69Z"/>
      <path d="m199.68,16.29v12.98c0,.67-.02,1.5-.07,2.51-.05,1.01-.11,2.03-.19,3.07-.08,1.04-.16,1.97-.23,2.79-.08.82-.14,1.38-.18,1.67l15.15-23.03h10.78v32.84h-8.66v-13.1c0-1.08.04-2.27.12-3.57.08-1.3.17-2.53.26-3.69.1-1.15.17-2.03.21-2.61l-15.1,22.97h-10.75V16.29h8.66Z"/>
      <path d="m243.3,16.29v12.63h12.51v-12.63h8.96v32.84h-8.96v-13.54h-12.51v13.54h-8.96V16.29h8.96Z"/>
      <path d="m298.75,16.29v12.63h12.51v-12.63h8.96v32.84h-8.96v-13.54h-12.51v13.54h-8.96V16.29h8.96Z"/>
      <path d="m343.07,15.61c4.41,0,7.78.96,10.13,2.88,2.35,1.92,3.52,4.84,3.52,8.75v21.88h-6.26l-1.73-4.46h-.23c-.94,1.17-1.9,2.13-2.88,2.88-.98.74-2.11,1.29-3.38,1.64-1.27.35-2.82.53-4.64.53-1.94,0-3.68-.37-5.21-1.12-1.54-.74-2.75-1.88-3.63-3.42-.88-1.54-1.32-3.49-1.32-5.86,0-3.48,1.22-6.05,3.67-7.71,2.45-1.66,6.12-2.57,11.01-2.75l5.7-.18v-1.44c0-1.72-.45-2.99-1.35-3.79-.9-.8-2.15-1.2-3.76-1.2s-3.14.23-4.67.68c-1.53.45-3.05,1.02-4.58,1.7l-2.97-6.05c1.74-.92,3.7-1.64,5.86-2.17,2.16-.53,4.4-.79,6.71-.79Zm4.76,18.3l-3.47.12c-2.9.08-4.91.6-6.04,1.56-1.13.96-1.69,2.22-1.69,3.79,0,1.37.4,2.34,1.2,2.92.8.58,1.85.87,3.14.87,1.92,0,3.54-.57,4.86-1.7,1.32-1.13,1.98-2.75,1.98-4.85v-2.7Z"/>
      <path d="m411.09,16.29v26.29h4.82v18.33h-8.05v-11.78h-22.09v11.78h-8.05v-18.33h2.76c1.45-2.21,2.67-4.74,3.66-7.58.99-2.84,1.79-5.85,2.41-9.03.62-3.18,1.06-6.41,1.34-9.68h23.2Zm-8.96,6.73h-6.73c-.31,2.43-.71,4.77-1.19,7.03-.48,2.26-1.07,4.44-1.78,6.52-.7,2.09-1.57,4.09-2.58,6.01h12.28v-19.56Z"/>
      <path d="m430.18,16.29v12.98c0,.67-.02,1.5-.07,2.51-.05,1.01-.11,2.03-.19,3.07-.08,1.04-.16,1.97-.23,2.79-.08.82-.14,1.38-.18,1.67l15.15-23.03h10.78v32.84h-8.66v-13.1c0-1.08.04-2.27.12-3.57.08-1.3.17-2.53.26-3.69.1-1.15.17-2.03.21-2.61l-15.1,22.97h-10.75V16.29h8.66Z"/>
      <path d="m493.94,24.89c0,1.76-.55,3.26-1.66,4.51-1.11,1.24-2.74,2.04-4.89,2.39v.23c2.27.27,4.1,1.06,5.49,2.36,1.39,1.3,2.09,2.94,2.09,4.92s-.49,3.56-1.47,5.04c-.98,1.48-2.54,2.64-4.67,3.49-2.13.85-4.92,1.28-8.37,1.28h-15.62V16.29h15.62c2.56,0,4.86.27,6.9.81,2.04.54,3.64,1.43,4.82,2.69,1.17,1.25,1.76,2.96,1.76,5.11Zm-9.08.7c0-1.02-.4-1.77-1.2-2.26-.8-.49-1.99-.73-3.55-.73h-6.31v6.49h5.29c1.9,0,3.34-.27,4.32-.82.98-.55,1.47-1.44,1.47-2.67Zm.82,13.25c0-1.29-.5-2.23-1.51-2.81-1.01-.58-2.5-.87-4.48-.87h-5.9v7.75h6.08c1.68,0,3.07-.31,4.17-.94,1.1-.63,1.64-1.67,1.64-3.14Z"/>
      <path d="m516.11,15.61c4.41,0,7.78.96,10.13,2.88,2.35,1.92,3.52,4.84,3.52,8.75v21.88h-6.26l-1.73-4.46h-.23c-.94,1.17-1.9,2.13-2.88,2.88-.98.74-2.11,1.29-3.38,1.64-1.27.35-2.82.53-4.64.53-1.94,0-3.68-.37-5.21-1.12-1.54-.74-2.75-1.88-3.63-3.42-.88-1.54-1.32-3.49-1.32-5.86,0-3.48,1.22-6.05,3.67-7.71,2.45-1.66,6.12-2.57,11.01-2.75l5.7-.18v-1.44c0-1.72-.45-2.99-1.35-3.79-.9-.8-2.15-1.2-3.76-1.2s-3.14.23-4.67.68c-1.53.45-3.05,1.02-4.58,1.7l-2.97-6.05c1.74-.92,3.7-1.64,5.86-2.17,2.16-.53,4.4-.79,6.71-.79Zm4.76,18.3l-3.47.12c-2.9.08-4.91.6-6.04,1.56-1.13.96-1.69,2.22-1.69,3.79,0,1.37.4,2.34,1.2,2.92.8.58,1.85.87,3.14.87,1.92,0,3.54-.57,4.86-1.7,1.32-1.13,1.98-2.75,1.98-4.85v-2.7Z"/>
      <path d="m547.95,16.29v12.63h12.51v-12.63h8.96v32.84h-8.96v-13.54h-12.51v13.54h-8.96V16.29h8.96Z"/>
      <path d="m592.36,15.67c3.03,0,5.65.58,7.84,1.75,2.19,1.17,3.89,2.85,5.08,5.07,1.2,2.21,1.79,4.92,1.79,8.11v4.35h-21.18c.1,2.53.86,4.51,2.28,5.95,1.42,1.44,3.39,2.16,5.92,2.16,2.09,0,4.01-.21,5.76-.65,1.74-.43,3.53-1.08,5.38-1.94v6.93c-1.63.8-3.32,1.39-5.1,1.76-1.77.37-3.92.56-6.45.56-3.29,0-6.2-.61-8.74-1.82-2.54-1.21-4.52-3.06-5.96-5.55-1.44-2.49-2.16-5.62-2.16-9.4s.65-7.03,1.95-9.59c1.3-2.55,3.12-4.47,5.45-5.76,2.33-1.28,5.04-1.92,8.14-1.92Zm.06,6.37c-1.74,0-3.19.56-4.33,1.67-1.15,1.12-1.81,2.87-1.98,5.26h12.57c-.02-1.33-.26-2.52-.72-3.55-.46-1.04-1.15-1.86-2.06-2.47-.91-.61-2.07-.91-3.48-.91Z"/>
      <path d="m637.56,49.71c-2.07,0-3.93-.16-5.55-.47-1.62-.31-3.14-.83-4.55-1.56v-6.99c1.45.67,2.98,1.22,4.6,1.67,1.62.45,3.28.68,5.01.68,1.37,0,2.56-.25,3.57-.76,1.01-.51,1.81-1.32,2.41-2.42.6-1.11.95-2.55,1.07-4.33h-12.39v-5.96h12.39c-.14-2.43-.73-4.24-1.78-5.45-1.05-1.2-2.56-1.81-4.54-1.81-1.41,0-2.76.19-4.05.56-1.29.37-2.49.8-3.58,1.29l-2.53-6.14c1.27-.57,2.82-1.1,4.64-1.6,1.82-.5,3.78-.75,5.87-.75,2.88,0,5.46.5,7.75,1.5s4.11,2.71,5.45,5.12c1.34,2.42,2.01,5.77,2.01,10.06,0,3.94-.62,7.19-1.85,9.75-1.23,2.57-3.03,4.47-5.39,5.73-2.36,1.25-5.21,1.88-8.56,1.88Z"/>
      <path d="m682.31,16.29h9.87l-13.01,15.74,14.16,17.09h-10.16l-13.42-16.65v16.65h-8.96V16.29h8.96v15.95l12.57-15.95Z"/>
      <path d="m716.3,15.67c3.7,0,6.69,1.44,8.97,4.32,2.28,2.88,3.42,7.1,3.42,12.66,0,3.72-.54,6.85-1.62,9.38-1.08,2.54-2.56,4.45-4.46,5.74-1.9,1.29-4.08,1.94-6.55,1.94-1.59,0-2.95-.2-4.08-.6-1.14-.4-2.11-.92-2.91-1.56-.8-.64-1.5-1.32-2.09-2.04h-.47c.16.78.27,1.59.35,2.41.08.82.12,1.62.12,2.41v13.25h-8.96V16.29h7.28l1.26,4.26h.41c.59-.88,1.3-1.69,2.15-2.44.84-.74,1.85-1.34,3.04-1.78,1.18-.44,2.56-.66,4.13-.66Zm-2.88,7.17c-1.57,0-2.81.32-3.73.97-.92.65-1.59,1.62-2.01,2.91s-.65,2.93-.69,4.9v.97c0,2.11.2,3.91.6,5.37.4,1.47,1.08,2.58,2.03,3.35s2.26,1.15,3.92,1.15c1.37,0,2.5-.38,3.38-1.15.88-.76,1.54-1.88,1.98-3.36.44-1.48.66-3.28.66-5.42,0-3.21-.5-5.63-1.5-7.25-1-1.62-2.54-2.44-4.64-2.44Z"/>
      <path d="m749.54,15.61c4.41,0,7.78.96,10.13,2.88,2.35,1.92,3.52,4.84,3.52,8.75v21.88h-6.26l-1.73-4.46h-.23c-.94,1.17-1.9,2.13-2.88,2.88-.98.74-2.1,1.29-3.38,1.64s-2.82.53-4.64.53c-1.94,0-3.68-.37-5.21-1.12s-2.75-1.88-3.63-3.42c-.88-1.54-1.32-3.49-1.32-5.86,0-3.48,1.22-6.05,3.67-7.71,2.45-1.66,6.12-2.57,11.01-2.75l5.7-.18v-1.44c0-1.72-.45-2.99-1.35-3.79-.9-.8-2.15-1.2-3.76-1.2s-3.14.23-4.67.68c-1.53.45-3.05,1.02-4.58,1.7l-2.97-6.05c1.74-.92,3.7-1.64,5.86-2.17,2.16-.53,4.4-.79,6.71-.79Zm4.76,18.3l-3.47.12c-2.9.08-4.91.6-6.04,1.56-1.13.96-1.69,2.22-1.69,3.79,0,1.37.4,2.34,1.2,2.92.8.58,1.85.87,3.14.87,1.92,0,3.54-.57,4.86-1.7,1.32-1.13,1.98-2.75,1.98-4.85v-2.7Z"/>
      <path d="m781.38,16.29v12.63h12.51v-12.63h8.96v32.84h-8.96v-13.54h-12.51v13.54h-8.96V16.29h8.96Z"/>
      <path d="m825.78,15.67c3.04,0,5.65.58,7.84,1.75,2.19,1.17,3.89,2.85,5.08,5.07,1.2,2.21,1.79,4.92,1.79,8.11v4.35h-21.18c.1,2.53.86,4.51,2.28,5.95,1.42,1.44,3.39,2.16,5.92,2.16,2.1,0,4.01-.21,5.76-.65,1.74-.43,3.53-1.08,5.38-1.94v6.93c-1.63.8-3.32,1.39-5.1,1.76-1.77.37-3.92.56-6.45.56-3.29,0-6.2-.61-8.74-1.82-2.54-1.21-4.52-3.06-5.96-5.55-1.44-2.49-2.16-5.62-2.16-9.4s.65-7.03,1.95-9.59c1.3-2.55,3.12-4.47,5.45-5.76,2.33-1.28,5.04-1.92,8.13-1.92Zm.06,6.37c-1.74,0-3.19.56-4.33,1.67-1.15,1.12-1.81,2.87-1.98,5.26h12.57c-.02-1.33-.26-2.52-.72-3.55-.46-1.04-1.15-1.86-2.06-2.47-.91-.61-2.07-.91-3.48-.91Z"/>
      <path class="cls-1" d="m376.87,33.61v-1.47h232.78v1.47h-232.78Z"/>
    </g>
    <rect class="cls-2" width="841" height="64"/>
  </g>
</svg>